<?xml version="1.0" standalone="no"?>
<!DOCTYPE svg PUBLIC "-//W3C//DTD SVG 20010904//EN"
 "http://www.w3.org/TR/2001/REC-SVG-20010904/DTD/svg10.dtd">
<svg version="1.0" xmlns="http://www.w3.org/2000/svg"
 width="700.000000pt" height="700.000000pt" viewBox="0 0 700.000000 700.000000"
 preserveAspectRatio="xMidYMid meet">
<metadata>
Created by potrace 1.11, written by Peter Selinger 2001-2013
</metadata>
<g transform="translate(0.000000,700.000000) scale(0.100000,-0.100000)"
fill="#000000" stroke="none">
<path d="M1388 6325 c-2 -2 -27 -6 -56 -10 -98 -12 -238 -70 -334 -137 -63
-44 -167 -157 -208 -227 -51 -85 -77 -152 -100 -257 -16 -76 -17 -207 -15
-2210 1 -1171 5 -2142 9 -2159 3 -16 16 -61 27 -100 85 -284 327 -492 632
-543 23 -4 1000 -7 2172 -7 l2130 0 85 23 c312 81 526 316 588 642 3 14 6 513
8 1110 l2 1085 -25 53 c-36 77 -86 106 -179 107 -61 0 -76 -4 -111 -28 -22
-15 -50 -46 -64 -70 l-24 -42 -1 -1065 c0 -586 -4 -1083 -8 -1105 -27 -146
-164 -278 -311 -301 -27 -4 -981 -7 -2120 -7 -1557 0 -2081 3 -2115 12 -150
39 -264 161 -286 306 -4 28 -7 986 -7 2130 0 2070 0 2080 21 2137 33 93 101
175 181 217 84 45 25 44 1781 45 1564 1 1657 2 1690 19 52 26 66 39 90 82 57
99 18 226 -85 283 -28 16 -164 17 -1697 18 -917 1 -1668 0 -1670 -1z"/>
<path d="M6357 6025 c-19 -6 -47 -21 -63 -33 -16 -11 -650 -642 -1409 -1401
-759 -760 -1382 -1381 -1385 -1381 -3 0 -172 167 -375 370 -248 248 -384 377
-412 391 -96 47 -217 9 -263 -81 -29 -56 -33 -96 -15 -155 14 -50 39 -76 482
-519 257 -257 480 -474 496 -482 38 -20 123 -21 167 -2 41 17 2991 2963 3018
3012 10 19 16 55 17 93 0 53 -4 67 -30 105 -53 74 -150 110 -228 83z"/>
</g>
</svg>
